<svg width="24" height="24" viewBox="0 0 24 24" fill="none" xmlns="http://www.w3.org/2000/svg">
<path d="M3.16992 7.44L11.9999 12.55L20.7699 7.46997" stroke="#919191" stroke-width="1.5" stroke-linecap="round" stroke-linejoin="round"/>
<path d="M12 21.61V12.54" stroke="#919191" stroke-width="1.5" stroke-linecap="round" stroke-linejoin="round"/>
<path d="M9.92987 2.48L4.58987 5.45003C3.37987 6.12003 2.38989 7.80001 2.38989 9.18001V14.83C2.38989 16.21 3.37987 17.89 4.58987 18.56L9.92987 21.53C11.0699 22.16 12.9399 22.16 14.0799 21.53L19.4199 18.56C20.6299 17.89 21.6199 16.21 21.6199 14.83V9.18001C21.6199 7.80001 20.6299 6.12003 19.4199 5.45003L14.0799 2.48C12.9299 1.84 11.0699 1.84 9.92987 2.48Z" stroke="#919191" stroke-width="1.5" stroke-linecap="round" stroke-linejoin="round"/>
<path d="M17 13.24V9.58002L7.51001 4.09998" stroke="#919191" stroke-width="1.5" stroke-linecap="round" stroke-linejoin="round"/>
</svg>
