<svg width="40" height="40" viewBox="0 0 40 40" fill="none" xmlns="http://www.w3.org/2000/svg">
<rect x="0.25" y="0.25" width="39.5" height="39.5" rx="19.75" fill="white"/>
<rect x="0.25" y="0.25" width="39.5" height="39.5" rx="19.75" stroke="#DADADA" stroke-width="0.5"/>
<g clip-path="url(#clip0_120_2129)">
<path d="M30.4002 11.5889C30.3996 11.5576 30.3898 11.5287 30.3821 11.4989C30.3766 11.478 30.3757 11.4557 30.3671 11.4362C30.3571 11.4134 30.3397 11.3952 30.3256 11.3746C30.3107 11.353 30.2991 11.3293 30.2804 11.311C30.2654 11.2963 30.245 11.2877 30.2276 11.2754C30.2022 11.2576 30.1786 11.2382 30.1495 11.2266C30.1468 11.2255 30.1451 11.2232 30.1424 11.2222L27.0225 10.0523L25.0838 8.11353C25.0698 8.09951 25.0518 8.09346 25.0363 8.08198C25.0142 8.06543 24.9933 8.04855 24.9688 8.03711C24.946 8.02647 24.9228 8.02145 24.8988 8.01536C24.8729 8.00875 24.8482 8.00172 24.8216 8.00036C24.7969 7.99909 24.7735 8.00322 24.749 8.0065C24.7226 8.00997 24.6972 8.01273 24.6718 8.02155C24.6473 8.02994 24.6257 8.044 24.6029 8.05732C24.5856 8.0674 24.5663 8.07171 24.5502 8.0847C22.0412 10.1022 17.9593 10.1022 15.4503 8.0847C15.4344 8.0719 15.4153 8.06763 15.3982 8.05769C15.375 8.04414 15.3531 8.02994 15.3282 8.02145C15.3036 8.01301 15.2792 8.01044 15.2538 8.00697C15.2282 8.0034 15.2037 7.99918 15.1779 8.00059C15.1525 8.002 15.1289 8.0088 15.1041 8.01498C15.079 8.02117 15.0548 8.02647 15.0311 8.03758C15.007 8.04883 14.9867 8.06538 14.965 8.08151C14.9493 8.09318 14.9309 8.09932 14.9166 8.11358L12.9779 10.0523L9.85799 11.2222C9.85527 11.2232 9.85358 11.2255 9.85091 11.2266C9.82184 11.2382 9.79826 11.2576 9.77303 11.2753C9.75555 11.2877 9.73511 11.2963 9.72006 11.311C9.70145 11.3292 9.68991 11.3528 9.6751 11.3742C9.66089 11.395 9.64341 11.4133 9.63333 11.4363C9.62479 11.4556 9.62386 11.4777 9.61846 11.4985C9.61068 11.5285 9.60088 11.5575 9.60023 11.5889C9.60018 11.5917 9.59863 11.594 9.59863 11.5968V31.6C9.59861 31.6525 9.60895 31.7046 9.62905 31.7531C9.64914 31.8016 9.67861 31.8457 9.71576 31.8829C9.75291 31.9201 9.79702 31.9495 9.84557 31.9696C9.89411 31.9897 9.94614 32 9.99868 32H30.0018C30.0544 32 30.1064 31.9897 30.1549 31.9696C30.2035 31.9495 30.2476 31.9201 30.2847 31.8829C30.3219 31.8457 30.3514 31.8016 30.3715 31.7531C30.3916 31.7046 30.4019 31.6525 30.4019 31.6V11.5969C30.4019 11.594 30.4003 11.5917 30.4002 11.5889ZM25.1665 9.32759L26.3024 10.4635L23.498 15.3709L20.6273 12.8193L25.1665 9.32759ZM14.8339 9.32759L19.3731 12.8193L16.5024 15.3709L13.6981 10.4635L14.8339 9.32759ZM19.6001 31.1999H10.3987V11.8742L13.0209 10.8909L16.0523 16.196C16.0873 16.2572 16.1379 16.3081 16.1988 16.3435C16.2598 16.3789 16.3291 16.3976 16.3996 16.3976C16.4975 16.3976 16.5921 16.3617 16.6653 16.2967L19.6001 13.6879V31.1999ZM16.6627 9.72506C17.7033 10.1666 18.8517 10.3879 20.0002 10.3879C21.1488 10.3879 22.2971 10.1666 23.3378 9.72506L20.0002 12.2923L16.6627 9.72506ZM29.6017 31.1999H20.4003V13.6879L23.3351 16.2966C23.3796 16.3361 23.4324 16.3652 23.4896 16.3818C23.5467 16.3983 23.6069 16.4019 23.6656 16.3923C23.7243 16.3827 23.7802 16.36 23.829 16.3261C23.8779 16.2921 23.9186 16.2477 23.9481 16.196L26.9796 10.8909L29.6017 11.8742V31.1999Z" fill="black"/>
<path d="M22.401 19.5981V23.1987C22.401 23.2646 22.4173 23.3294 22.4484 23.3875C22.4794 23.4455 22.5244 23.495 22.5792 23.5316L24.9796 25.1318C25.0453 25.1756 25.1225 25.1989 25.2015 25.1989C25.2804 25.1989 25.3576 25.1756 25.4234 25.1318L27.8237 23.5316C27.8785 23.495 27.9235 23.4455 27.9546 23.3875C27.9856 23.3294 28.0019 23.2646 28.0019 23.1987V19.5981C28.0019 19.5456 27.9916 19.4936 27.9715 19.445C27.9514 19.3965 27.9219 19.3524 27.8848 19.3152C27.8476 19.2781 27.8035 19.2486 27.7549 19.2285C27.7064 19.2084 27.6544 19.1981 27.6018 19.1981H22.8011C22.7485 19.1981 22.6965 19.2084 22.648 19.2285C22.5994 19.2486 22.5553 19.2781 22.5182 19.3152C22.481 19.3524 22.4516 19.3965 22.4315 19.445C22.4114 19.4936 22.401 19.5456 22.401 19.5981ZM23.2011 19.9982H27.2017V22.9846L25.2014 24.3182L23.2011 22.9846V19.9982H23.2011ZM17.6003 18.798C17.7042 18.798 17.8081 18.7539 17.8843 18.682C17.9562 18.606 18.0003 18.5019 18.0003 18.398C18.0003 18.29 17.9562 18.1899 17.8843 18.114C17.7362 17.9659 17.4643 17.9659 17.3162 18.114C17.2439 18.19 17.2002 18.29 17.2002 18.398C17.2002 18.5019 17.2439 18.606 17.3162 18.682C17.392 18.7579 17.4964 18.798 17.6003 18.798ZM17.6003 21.9985C17.7081 21.9985 17.8081 21.9543 17.8843 21.8825C17.9562 21.8065 18.0003 21.7023 18.0003 21.5985C18.0003 21.4904 17.9562 21.3904 17.8843 21.3144C17.7362 21.1664 17.4643 21.1664 17.3162 21.3144C17.2439 21.3904 17.2002 21.4904 17.2002 21.5985C17.2002 21.7024 17.2439 21.8065 17.3162 21.8825C17.392 21.9544 17.4964 21.9985 17.6003 21.9985ZM17.6003 25.199C17.7081 25.199 17.8081 25.1549 17.8843 25.083C17.9562 25.007 18.0003 24.9029 18.0003 24.799C18.0003 24.691 17.9562 24.5909 17.8843 24.515C17.7362 24.3669 17.4643 24.3669 17.3162 24.515C17.2439 24.591 17.2002 24.691 17.2002 24.799C17.2002 24.9029 17.2439 25.007 17.3162 25.083C17.392 25.1549 17.4964 25.199 17.6003 25.199ZM17.6003 28.3995C17.7081 28.3995 17.8081 28.3554 17.8843 28.2835C17.9562 28.2075 18.0003 28.1034 18.0003 27.9995C18.0003 27.8954 17.9562 27.7914 17.8843 27.7155C17.7362 27.5674 17.4682 27.5674 17.3162 27.7155C17.2439 27.7915 17.2002 27.8954 17.2002 27.9995C17.2002 28.1034 17.2439 28.2075 17.3162 28.2835C17.392 28.3554 17.4964 28.3995 17.6003 28.3995Z" fill="black"/>
</g>
<defs>
<clipPath id="clip0_120_2129">
<rect width="24" height="24" fill="white" transform="translate(8 8)"/>
</clipPath>
</defs>
</svg>
