<svg width="40" height="40" viewBox="0 0 40 40" fill="none" xmlns="http://www.w3.org/2000/svg">
<rect x="0.25" y="0.25" width="39.5" height="39.5" rx="19.75" fill="white"/>
<rect x="0.25" y="0.25" width="39.5" height="39.5" rx="19.75" stroke="#DADADA" stroke-width="0.5"/>
<g clip-path="url(#clip0_120_2143)">
<path d="M30.578 13.7303C30.4575 13.5859 30.2929 13.4849 30.1095 13.4428C29.926 13.4008 29.7339 13.42 29.5624 13.4975C29.3075 12.5159 28.8194 11.6102 28.1396 10.8575C27.184 9.78981 26.0748 8.87027 24.8484 8.12914C24.7346 8.05865 24.6059 8.01557 24.4726 8.00328C24.3392 7.991 24.2049 8.00984 24.08 8.05834C23.9568 8.10539 23.8462 8.18048 23.757 8.27768C23.6677 8.37488 23.6024 8.49151 23.566 8.61834C23.1911 9.8103 22.4734 10.8654 21.5024 11.6519C19.846 13.0583 17.828 13.0355 16.7712 12.8971C16.2386 12.8236 15.6978 12.955 15.2583 13.2649C14.8188 13.5747 14.5133 14.0399 14.4036 14.5663L13.4956 18.9147C13.4592 19.091 13.4781 19.2741 13.5497 19.4392C13.6212 19.6043 13.7421 19.7433 13.8956 19.8371L13.9356 19.8603L13.5804 20.9491C13.0655 22.5346 12.12 23.9458 10.8496 25.0251L8.96964 26.6215C8.4856 27.0335 8.15903 27.6003 8.04536 28.2256C7.93169 28.851 8.03793 29.4964 8.34604 30.0523L8.34924 30.0579C8.31665 30.1133 8.29048 30.1722 8.27124 30.2335C8.22906 30.3731 8.22259 30.521 8.25243 30.6637C8.28228 30.8064 8.34747 30.9394 8.44204 31.0503L8.98804 31.6923C9.06894 31.7888 9.17 31.8663 9.2841 31.9194C9.3982 31.9726 9.52257 32.0001 9.64844 31.9999C9.72209 31.9999 9.79545 31.9908 9.86684 31.9727C13.4251 30.9591 16.7164 29.1741 19.5068 26.7447C20.5446 25.8469 21.4824 24.8398 22.304 23.7407C23.0158 22.7922 23.8151 21.9127 24.6916 21.1139L24.7316 21.1635C24.8062 21.2511 24.8973 21.323 24.9999 21.375C25.1024 21.427 25.2142 21.4582 25.3288 21.4667C25.3512 21.4667 25.3736 21.4691 25.3956 21.4691C25.6023 21.4694 25.8021 21.3951 25.9584 21.2599L31.6944 16.3883C31.8685 16.2375 31.9763 16.0242 31.9944 15.7946C32.0125 15.5649 31.9395 15.3374 31.7912 15.1611L30.578 13.7303ZM15.1852 14.7303C15.2531 14.4011 15.4441 14.1102 15.7191 13.917C15.9941 13.7237 16.3325 13.6427 16.6652 13.6903C17.854 13.8467 20.1272 13.8687 22.0188 12.2611C23.1094 11.3726 23.9144 10.1828 24.3336 8.83994C24.3358 8.83151 24.3401 8.82376 24.346 8.8174C24.3519 8.81104 24.3594 8.80628 24.3676 8.80354C24.3776 8.79957 24.3883 8.79801 24.3989 8.79898C24.4096 8.79995 24.4198 8.80343 24.4288 8.80914C25.5837 9.50616 26.6286 10.3709 27.5292 11.3751C28.6264 12.6671 28.8132 13.6883 28.844 14.0551L23.408 18.6759C20.7444 18.0359 17.798 19.5319 16.6336 20.2227C16.5491 20.2736 16.4523 20.3005 16.3536 20.3005C16.255 20.3005 16.1582 20.2736 16.0736 20.2227L14.3104 19.1535C14.2986 19.1457 14.2894 19.1345 14.284 19.1214C14.2786 19.1083 14.2772 19.0938 14.28 19.0799L14.4452 18.2883L15.1436 18.4883C15.1798 18.4986 15.2172 18.5038 15.2548 18.5039C15.3513 18.504 15.4445 18.4692 15.5173 18.406C15.5901 18.3428 15.6376 18.2554 15.6511 18.1599C15.6646 18.0644 15.6431 17.9673 15.5907 17.8864C15.5382 17.8054 15.4583 17.7462 15.3656 17.7195L14.6088 17.5007L14.9256 15.9807L15.6644 16.1931C15.7005 16.2036 15.7378 16.2088 15.7752 16.2087C15.8716 16.2087 15.9648 16.1738 16.0375 16.1106C16.1102 16.0473 16.1577 15.9599 16.1711 15.8645C16.1846 15.769 16.1631 15.6719 16.1106 15.5911C16.0582 15.5102 15.9783 15.451 15.8856 15.4243L15.0892 15.1955L15.1852 14.7303ZM9.48884 27.2307L11.3688 25.6347C12.7524 24.4588 13.782 22.9217 14.3428 21.1947L14.6396 20.2843L15.6612 20.9043C15.8696 21.0302 16.1082 21.0971 16.3516 21.0979C16.5951 21.0987 16.8341 21.0333 17.0432 20.9087C18.036 20.3199 20.4208 19.0959 22.648 19.3487C21.8545 20.1092 21.1225 20.9314 20.4588 21.8075C19.6704 22.8661 18.7691 23.8357 17.7708 24.6991C15.2135 26.9065 12.2368 28.5749 9.01924 29.6043C8.81854 29.2137 8.75571 28.7667 8.84095 28.3358C8.92619 27.905 9.1545 27.5155 9.48884 27.2307ZM21.6752 23.2447C20.8867 24.3031 19.9854 25.2725 18.9872 26.1359C16.2911 28.4874 13.1097 30.2156 9.66964 31.1975C9.65711 31.2007 9.64393 31.2003 9.63162 31.1964C9.61931 31.1924 9.60837 31.185 9.60004 31.1751L9.05204 30.5323C9.04382 30.5234 9.03813 30.5124 9.03553 30.5005C9.03293 30.4887 9.03352 30.4763 9.03724 30.4647C9.04006 30.4539 9.04581 30.4441 9.05386 30.4363C9.0619 30.4286 9.07193 30.4232 9.08284 30.4207C12.4694 29.3678 15.6027 27.6283 18.2872 25.3107C19.325 24.413 20.2628 23.4058 21.0844 22.3067C21.7957 21.3582 22.5947 20.4787 23.4708 19.6799L24.172 20.5043C23.2559 21.3377 22.4199 22.2552 21.6752 23.2447ZM31.176 15.7799L25.44 20.6527C25.426 20.6637 25.4087 20.6696 25.3908 20.6695C25.3718 20.6681 25.3541 20.6592 25.3416 20.6447L25.0372 20.2871L24.0772 19.1591L29.8692 14.2391C29.8757 14.2328 29.8836 14.2282 29.8922 14.2255C29.9008 14.2229 29.91 14.2224 29.9188 14.2239C29.9284 14.2247 29.9377 14.2273 29.9462 14.2318C29.9546 14.2363 29.9621 14.2425 29.968 14.2499L31.1828 15.6803C31.1945 15.6947 31.2003 15.713 31.1991 15.7315C31.1978 15.75 31.1896 15.7673 31.176 15.7799Z" fill="black"/>
</g>
<defs>
<clipPath id="clip0_120_2143">
<rect width="24" height="24" fill="white" transform="translate(8 8)"/>
</clipPath>
</defs>
</svg>
