<svg width="40" height="40" viewBox="0 0 40 40" fill="none" xmlns="http://www.w3.org/2000/svg">
<rect x="0.25" y="0.25" width="39.5" height="39.5" rx="19.75" fill="white"/>
<rect x="0.25" y="0.25" width="39.5" height="39.5" rx="19.75" stroke="#DADADA" stroke-width="0.5"/>
<path d="M21.8994 11.0684L20.168 10.3271L19.9707 10.2432L19.7744 10.3271L18.042 11.0693V8.75781L19.7744 9.5L19.9707 9.58496L20.168 9.5L21.8994 8.75781V11.0684Z" stroke="black"/>
<path d="M28.6787 11.7708L28.6797 11.7737V11.7747L31.4141 29.6917L28.7021 29.5901L27.1299 19.7913L26.1367 19.8616L26.1006 21.885V21.9055L26.1016 21.927L26.4961 27.8313V27.8391L26.4971 27.8469L26.8525 31.5002H21.8848L20.4473 28.6262L20 27.7327L19.5527 28.6262L18.1152 31.5002H13.1475L13.502 27.8469L13.5039 27.8313L13.8984 21.9338L13.8994 21.9133V21.8918L13.8633 19.8655L12.8701 19.7952L11.2969 29.5901L8.58496 29.6917L11.3193 11.7708L15.4258 9.93286L19.5312 20.9465L20 22.2034L20.4688 20.9465L22.2588 16.1438V18.0569H26.1377V15.8704H22.3604L24.5732 9.93286L28.6787 11.7708Z" stroke="black"/>
</svg>
