<svg width="40" height="40" viewBox="0 0 40 40" fill="none" xmlns="http://www.w3.org/2000/svg">
<rect x="0.25" y="0.25" width="39.5" height="39.5" rx="19.75" fill="white"/>
<rect x="0.25" y="0.25" width="39.5" height="39.5" rx="19.75" stroke="#DADADA" stroke-width="0.5"/>
<path d="M21.7226 12.6088H18.6506C18.5774 12.6088 18.506 12.586 18.4464 12.5437C18.3867 12.5013 18.3418 12.4414 18.3178 12.3724L17.324 9.51217L17.3202 9.50045C17.2104 9.14526 17.2745 8.76991 17.4958 8.47073C17.717 8.17155 18.0576 8 18.4301 8H21.9429C22.3155 8 22.656 8.17155 22.8773 8.47073C23.0985 8.76991 23.1625 9.14521 23.0528 9.50045C23.0517 9.50448 23.0502 9.50833 23.049 9.51217L22.0553 12.3724C22.0314 12.4414 21.9864 12.5013 21.9268 12.5436C21.8671 12.586 21.7957 12.6088 21.7225 12.6088H21.7226ZM18.9013 11.9057H21.4718L22.3812 9.2884C22.4015 9.22085 22.4057 9.14948 22.3935 9.08001C22.3812 9.01054 22.3528 8.94491 22.3106 8.88836C22.2683 8.83067 22.213 8.7838 22.1491 8.75159C22.0852 8.71938 22.0145 8.70275 21.9429 8.70307H18.4301C18.3585 8.70275 18.2879 8.71938 18.224 8.75159C18.1601 8.7838 18.1047 8.83067 18.0625 8.88836C18.0202 8.94491 17.9918 9.01054 17.9796 9.08001C17.9673 9.14948 17.9715 9.22085 17.9918 9.2884L18.9013 11.9057ZM20.1866 31.9982C19.6061 31.9982 19.0633 31.7404 18.6973 31.2911L15.5552 27.4343C15.3817 27.2214 15.256 26.9737 15.1867 26.7081C15.1175 26.4424 15.1064 26.165 15.154 25.8947C15.1549 25.8887 15.1562 25.8828 15.1575 25.8768L17.9915 13.5492C18.0349 13.3599 18.2241 13.242 18.4136 13.2852C18.5047 13.306 18.5836 13.3621 18.6332 13.4411C18.6829 13.52 18.699 13.6154 18.6782 13.7063L15.8464 26.0247C15.8177 26.1946 15.8257 26.3686 15.8697 26.5352C15.9138 26.7018 15.9929 26.8571 16.1018 26.9907L19.2438 30.8475C19.3575 30.9876 19.5012 31.1005 19.6644 31.178C19.8275 31.2555 20.006 31.2955 20.1866 31.2951C20.3673 31.2955 20.5457 31.2555 20.7088 31.178C20.8719 31.1006 21.0156 30.9876 21.1293 30.8475L24.2712 26.9907C24.3802 26.857 24.4593 26.7017 24.5034 26.5351C24.5474 26.3686 24.5553 26.1945 24.5266 26.0246L21.6941 13.7028C21.6838 13.6578 21.6824 13.6112 21.6901 13.5657C21.6978 13.5202 21.7144 13.4766 21.739 13.4375C21.7636 13.3984 21.7956 13.3645 21.8333 13.3378C21.871 13.311 21.9136 13.292 21.9587 13.2817C22.0038 13.2713 22.0505 13.27 22.0961 13.2777C22.1417 13.2853 22.1853 13.3019 22.2245 13.3264C22.2637 13.3509 22.2977 13.3829 22.3245 13.4205C22.3513 13.4581 22.3705 13.5007 22.3808 13.5457L25.2154 25.8767C25.2168 25.8828 25.2181 25.8886 25.219 25.8947C25.2666 26.165 25.2555 26.4423 25.1862 26.7079C25.117 26.9736 24.9913 27.2212 24.8178 27.4341L21.6758 31.2909C21.3098 31.7404 20.7669 31.9982 20.1866 31.9982Z" fill="black"/>
</svg>
