<svg width="20" height="20" viewBox="0 0 20 20" fill="none" xmlns="http://www.w3.org/2000/svg">
<mask id="mask0_602_11627" style="mask-type:luminance" maskUnits="userSpaceOnUse" x="0" y="0" width="20" height="20">
<path d="M20 0H0V20H20V0Z" fill="white"/>
</mask>
<g mask="url(#mask0_602_11627)">
<path d="M12.1082 7.8916L7.8916 12.1083C7.34994 11.5666 7.0166 10.8249 7.0166 9.99992C7.0166 8.34992 8.3499 7.0166 9.9999 7.0166C10.8249 7.0166 11.5666 7.34994 12.1082 7.8916Z" stroke="#939393" stroke-width="1.5" stroke-linecap="round" stroke-linejoin="round"/>
<path d="M14.8499 4.80889C13.3916 3.70889 11.7249 3.10889 9.99989 3.10889C7.0582 3.10889 4.31654 4.84222 2.4082 7.84222C1.6582 9.01725 1.6582 10.9922 2.4082 12.1672C3.06654 13.2006 3.8332 14.0922 4.66654 14.8089" stroke="#939393" stroke-width="1.5" stroke-linecap="round" stroke-linejoin="round"/>
<path d="M7.0166 16.2748C7.9666 16.6748 8.9749 16.8915 9.9999 16.8915C12.9416 16.8915 15.6832 15.1582 17.5916 12.1582C18.3416 10.9832 18.3416 9.00816 17.5916 7.83315C17.3166 7.39982 17.0166 6.99149 16.7082 6.60815" stroke="#939393" stroke-width="1.5" stroke-linecap="round" stroke-linejoin="round"/>
<path d="M12.9252 10.5828C12.7085 11.7578 11.7502 12.7161 10.5752 12.9328" stroke="#939393" stroke-width="1.5" stroke-linecap="round" stroke-linejoin="round"/>
<path d="M7.89199 12.1079L1.66699 18.3329" stroke="#939393" stroke-width="1.5" stroke-linecap="round" stroke-linejoin="round"/>
<path d="M18.3334 1.66675L12.1084 7.89175" stroke="#939393" stroke-width="1.5" stroke-linecap="round" stroke-linejoin="round"/>
</g>
</svg>
